<svg width="476" height="588" viewBox="0 0 476 588" fill="none" xmlns="http://www.w3.org/2000/svg">
<path d="M24.4264 443.301C-6.4996 365.792 12.5404 278.09 79.4318 209.142C136.46 152.067 175.028 112.456 200.862 81.4301C217.778 61.1149 229.517 44.1561 237.482 28.0274C245.835 44.9491 258.302 62.4026 275.827 83.0359C300.917 112.578 337.174 149.53 388.148 201.481C390.615 203.994 393.116 206.543 395.651 209.128L395.684 209.161L395.716 209.193C462.65 276.182 483.556 365.859 450.706 443.216L450.632 443.391L450.565 443.568C419.591 524.939 338.001 578 239.588 578C141.319 578 59.4781 525.028 24.4264 443.301Z" stroke="white" stroke-width="20"/>
</svg>
