<svg width="41" height="40" viewBox="0 0 41 40" fill="none" xmlns="http://www.w3.org/2000/svg">
<path d="M40.1905 31.2354C40.1905 36.0768 36.2754 40 31.4458 40H8.74469C3.91506 40 0 36.0768 0 31.2354V8.76464C0 3.92316 3.91506 0 8.74469 0H31.4458C36.2754 0 40.1905 3.92316 40.1905 8.76464V31.2354Z" fill="url(#paint0_radial)"/>
<path d="M26.1214 34.9961H14.0693C9.34616 34.9961 5.5 31.1666 5.5 26.4501V13.6311C5.5 8.92078 9.33989 5.08508 14.0693 5.08508H26.1214C30.8446 5.08508 34.6907 8.91454 34.6907 13.6311V26.4501C34.6844 31.1604 30.8446 34.9961 26.1214 34.9961ZM14.0693 7.2778C10.5551 7.2778 7.6987 10.1265 7.6987 13.6311V26.4501C7.6987 29.9547 10.5551 32.8033 14.0693 32.8033H26.1214C29.6356 32.8033 32.492 29.9547 32.492 26.4501V13.6311C32.492 10.1265 29.6356 7.2778 26.1214 7.2778H14.0693V7.2778Z" fill="white"/>
<path d="M20.0954 27.9432C15.7042 27.9432 12.1274 24.3761 12.1274 19.9969C12.1274 17.8354 13.0169 15.7364 14.5704 14.2309C16.0864 12.7628 18.0595 11.9882 20.133 12.0506C22.6136 12.1256 24.6744 12.9564 26.0839 14.462C27.4244 15.8863 28.1072 17.8104 28.0571 20.0219C28.0132 22.1396 27.1738 24.1262 25.6955 25.6068C24.2109 27.1186 22.2189 27.9432 20.0954 27.9432ZM19.9137 14.7306C18.6233 14.7306 17.3956 15.2366 16.4434 16.1549C15.4098 17.1545 14.8147 18.5601 14.8147 19.9969C14.8147 22.9018 17.1826 25.2632 20.0954 25.2632C22.9957 25.2632 25.3134 22.9393 25.376 19.9657C25.4073 18.4664 24.9751 17.1982 24.1295 16.2924C23.2149 15.3178 21.8055 14.7806 20.0578 14.7244C20.0077 14.7306 19.9576 14.7306 19.9137 14.7306Z" fill="white"/>
<path d="M28.2574 13.6873C29.2849 13.6873 30.1178 12.8566 30.1178 11.8319C30.1178 10.8072 29.2849 9.97656 28.2574 9.97656C27.2299 9.97656 26.397 10.8072 26.397 11.8319C26.397 12.8566 27.2299 13.6873 28.2574 13.6873Z" fill="white"/>
<defs>
<radialGradient id="paint0_radial" cx="0" cy="0" r="1" gradientUnits="userSpaceOnUse" gradientTransform="translate(11.6807 39.8987) scale(40.5159 40.4058)">
<stop stop-color="#FFD776"/>
<stop offset="0.2463" stop-color="#F3A554"/>
<stop offset="0.3793" stop-color="#F15C3C"/>
<stop offset="0.5394" stop-color="#D94867"/>
<stop offset="0.6995" stop-color="#C32F87"/>
<stop offset="0.9122" stop-color="#7D63A7"/>
<stop offset="0.9852" stop-color="#5C6CB3"/>
</radialGradient>
</defs>
</svg>
