<svg width="83" height="36" viewBox="0 0 83 36" fill="none" xmlns="http://www.w3.org/2000/svg">
<path d="M16.3098 27.1878C16.6246 27.9429 17.1284 29.7679 16.1208 31.3411C16.1208 31.3411 18.0099 29.8308 17.1913 26.6843C17.1284 26.4326 16.8135 26.3067 16.6246 26.4955C16.5616 26.5585 16.5616 26.5585 16.4987 26.6214C16.3098 26.7473 16.1838 26.936 16.3098 27.1878Z" fill="white"/>
<path d="M23.2993 25.9292C23.0474 23.6637 22.5436 22.9085 22.2918 21.1465C21.788 16.8043 22.9214 17.119 20.5286 13.9096C21.5361 16.4897 19.647 17.2448 19.5841 19.1327C19.5841 19.2586 19.5841 19.3215 19.5841 19.3845C19.5841 19.3845 19.5841 19.3845 19.5211 19.3215C19.3952 18.5034 18.7655 12.9656 15.4281 9.00103C11.461 4.40715 15.617 0.316711 15.617 0.316711C5.41596 4.91059 5.22705 14.6018 5.22705 14.6018C4.59736 13.532 2.70828 12.9656 2.70828 12.9656C2.70828 12.9656 4.03064 15.5457 2.64531 19.762C2.4564 20.3284 2.14155 20.8318 1.76374 21.3982C1.6378 21.5241 1.57483 21.7129 1.44889 21.8387C0.882167 22.7197 0.315444 23.6637 0.063567 25.0481C0.000597648 25.4887 0.000598611 25.8662 0.000598611 26.3067C-0.0623708 31.2782 4.84924 35.6833 11.587 35.6833C15.8059 35.6833 22.9214 32.5997 23.2993 27.2507C23.3622 26.8731 23.3622 26.4326 23.2993 25.9292Z" fill="url(#paint0_radial)"/>
<path d="M11.5241 35.1169C8.06078 35.1169 5.03825 33.229 3.77886 30.2713C2.58245 27.4395 3.33808 24.293 5.73091 21.8387C9.82392 17.6853 11.0833 14.5388 11.4611 13.0915C11.8389 14.5388 13.0983 17.6224 17.1913 21.8387C19.6471 24.293 20.3398 27.5024 19.1434 30.2713C18.0099 33.229 14.9874 35.1169 11.5241 35.1169Z" fill="white"/>
<path d="M11.524 13.7208C12.0907 15.3569 13.476 18.2517 17.1282 21.9646C19.5211 24.3559 20.2137 27.5024 19.0803 30.2084C17.8839 33.1032 14.8613 34.9911 11.524 34.9911C8.18658 34.9911 5.16405 33.1032 3.96763 30.2084C2.83418 27.4395 3.52685 24.3559 5.91969 21.9646C9.57191 18.1888 11.0202 15.294 11.524 13.7208ZM11.524 12.2104C11.524 12.2104 11.2721 15.9233 5.66781 21.7129C0.0635357 27.5024 4.34545 35.3057 11.524 35.3057C18.7025 35.3057 23.0473 27.4395 17.4431 21.7129C11.7758 15.9233 11.524 12.2104 11.524 12.2104Z" fill="white"/>
<path d="M11.5241 35.1798C8.37562 35.1798 5.542 33.4178 4.40855 30.7118C3.33808 28.1317 4.03074 25.2369 6.23467 22.9715C9.76095 19.3845 11.0833 16.6155 11.5241 15.1052C11.9649 16.5526 13.2872 19.3215 16.8135 22.9715C19.0174 25.2369 19.7101 28.1317 18.6396 30.7118C17.5062 33.4178 14.7355 35.1798 11.5241 35.1798Z" fill="url(#paint1_radial)"/>
<path d="M11.524 15.8604C12.1537 17.4336 13.539 19.9508 16.6245 23.0973C18.8284 25.2999 19.4581 28.0688 18.3876 30.586C17.3172 33.229 14.6095 34.8652 11.524 34.8652C8.43848 34.8652 5.7308 33.1661 4.66032 30.586C3.58984 28.0688 4.21953 25.2999 6.42346 23.0973C9.50896 19.9508 10.8943 17.4336 11.524 15.8604ZM11.524 13.9096C11.524 13.9096 11.3351 17.3707 6.04565 22.7198C0.756219 28.0688 4.84923 35.3687 11.524 35.3687C18.1987 35.3687 22.2288 28.0688 17.0023 22.7198C11.7759 17.3707 11.524 13.9096 11.524 13.9096Z" fill="white"/>
<path d="M16.1838 27.3136C16.4986 28.0688 17.0024 29.8937 15.9949 31.467C15.9949 31.467 17.884 29.9567 17.0654 26.8102C17.0024 26.5585 16.6875 26.4326 16.4986 26.6214C16.4357 26.6843 16.4357 26.6843 16.3727 26.7472C16.1838 26.8731 16.1208 27.1248 16.1838 27.3136Z" fill="white"/>
<path d="M28.929 29.9138L32.8815 25.1737C35.4112 27.2277 38.257 28.2547 41.1819 28.2547C43.1582 28.2547 44.1858 27.6227 44.1858 26.5167C44.1858 25.3317 43.3163 25.0947 39.838 24.3047C34.3835 23.0406 30.1938 21.6186 30.1938 16.4045C30.1938 11.3484 34.1463 8.10931 40.1542 8.10931C44.502 8.10931 47.9012 9.29434 50.7471 11.5064L47.1898 16.5625C44.8182 14.9035 42.2886 14.0344 39.9961 14.0344C38.257 14.0344 37.4665 14.7455 37.4665 15.6935C37.4665 16.9575 38.3361 17.3525 41.9724 18.1425C47.8222 19.4065 51.5376 20.9866 51.5376 25.7267C51.5376 31.0198 47.506 34.1799 41.1819 34.1799C36.4388 34.1799 32.1701 32.7578 28.929 29.9138Z" fill="url(#paint2_radial)"/>
<path d="M44.1069 8.58334H51.7749L54.8579 23.1196L59.7591 8.58334H67.427L72.2492 23.1196L75.3322 8.58334H83.0001L76.0436 33.7059H68.85L63.6326 19.1696L58.3362 33.7059H51.1425L44.1069 8.58334Z" fill="url(#paint3_radial)"/>
<path d="M44.1067 8.58331H51.7747L54.8577 23.1196L59.7588 8.58331H67.4268L72.2489 23.1196L75.3319 8.58331H82.9999L76.0434 33.7058H68.8497L63.6323 19.1695L58.3359 33.7058H51.1422L44.1067 8.58331Z" fill="url(#paint4_radial)"/>
<defs>
<radialGradient id="paint0_radial" cx="0" cy="0" r="1" gradientUnits="userSpaceOnUse" gradientTransform="translate(11.5606 29.0927) scale(29.1804 29.1621)">
<stop offset="0.2099" stop-color="#FDC500"/>
<stop offset="0.2615" stop-color="#F59E00"/>
<stop offset="0.319" stop-color="#EE7402"/>
<stop offset="0.3732" stop-color="#E94F0E"/>
<stop offset="0.4225" stop-color="#E53112"/>
<stop offset="0.4654" stop-color="#E41813"/>
<stop offset="0.497" stop-color="#E30613"/>
<stop offset="0.62" stop-color="#E30613"/>
<stop offset="0.7396" stop-color="#AB223F"/>
<stop offset="0.9334" stop-color="#312A71"/>
</radialGradient>
<radialGradient id="paint1_radial" cx="0" cy="0" r="1" gradientUnits="userSpaceOnUse" gradientTransform="translate(14.8035 30.4102) scale(13.1471 13.1389)">
<stop offset="0.1224" stop-color="#B2D1EF"/>
<stop offset="0.286" stop-color="#90C3EB"/>
<stop offset="0.4851" stop-color="#65B4E5"/>
<stop offset="0.6756" stop-color="#3AAAE1"/>
<stop offset="0.8518" stop-color="#00A4DF"/>
<stop offset="1" stop-color="#00A2DE"/>
</radialGradient>
<radialGradient id="paint2_radial" cx="0" cy="0" r="1" gradientUnits="userSpaceOnUse" gradientTransform="translate(37.5303 14.5826) scale(40.4116 40.3863)">
<stop offset="0.1224" stop-color="#FDC500"/>
<stop offset="0.1472" stop-color="#FAB500"/>
<stop offset="0.2125" stop-color="#F28C00"/>
<stop offset="0.2768" stop-color="#EC6707"/>
<stop offset="0.3385" stop-color="#E84610"/>
<stop offset="0.3972" stop-color="#E52C12"/>
<stop offset="0.4514" stop-color="#E41513"/>
<stop offset="0.497" stop-color="#E30613"/>
<stop offset="0.5574" stop-color="#C3191E"/>
<stop offset="0.6486" stop-color="#952228"/>
<stop offset="0.7361" stop-color="#6F272E"/>
<stop offset="0.8173" stop-color="#522832"/>
<stop offset="0.8907" stop-color="#3D2934"/>
<stop offset="0.9541" stop-color="#302934"/>
<stop offset="1" stop-color="#2A2935"/>
</radialGradient>
<radialGradient id="paint3_radial" cx="0" cy="0" r="1" gradientUnits="userSpaceOnUse" gradientTransform="translate(43.6676 14.8039) scale(44.8575 44.8294)">
<stop offset="0.1224" stop-color="#FDC500"/>
<stop offset="0.1472" stop-color="#FAB500"/>
<stop offset="0.2125" stop-color="#F28C00"/>
<stop offset="0.2768" stop-color="#EC6707"/>
<stop offset="0.3385" stop-color="#E84610"/>
<stop offset="0.3972" stop-color="#E52C12"/>
<stop offset="0.4514" stop-color="#E41513"/>
<stop offset="0.497" stop-color="#E30613"/>
<stop offset="0.5574" stop-color="#C3191E"/>
<stop offset="0.6486" stop-color="#952228"/>
<stop offset="0.7361" stop-color="#6F272E"/>
<stop offset="0.8173" stop-color="#522832"/>
<stop offset="0.8907" stop-color="#3D2934"/>
<stop offset="0.9541" stop-color="#302934"/>
<stop offset="1" stop-color="#2A2935"/>
</radialGradient>
<radialGradient id="paint4_radial" cx="0" cy="0" r="1" gradientUnits="userSpaceOnUse" gradientTransform="translate(43.6674 14.8038) scale(44.8575 44.8294)">
<stop offset="0.1224" stop-color="#FDC500"/>
<stop offset="0.1472" stop-color="#FAB500"/>
<stop offset="0.2125" stop-color="#F28C00"/>
<stop offset="0.2768" stop-color="#EC6707"/>
<stop offset="0.3385" stop-color="#E84610"/>
<stop offset="0.3972" stop-color="#E52C12"/>
<stop offset="0.4514" stop-color="#E41513"/>
<stop offset="0.497" stop-color="#E30613"/>
<stop offset="0.5501" stop-color="#C9182B"/>
<stop offset="0.6303" stop-color="#A22344"/>
<stop offset="0.7072" stop-color="#7D2956"/>
<stop offset="0.7785" stop-color="#5D2B63"/>
<stop offset="0.8431" stop-color="#462B6B"/>
<stop offset="0.8988" stop-color="#372A70"/>
<stop offset="0.9391" stop-color="#312A71"/>
</radialGradient>
</defs>
</svg>
