<svg width="33" height="48" viewBox="0 0 33 48" fill="none" xmlns="http://www.w3.org/2000/svg">
<path d="M26.1148 41.3C27.6148 37.6 26.7148 33.8 23.6148 30.5C19.1148 26 17.1148 22.4 16.2148 20.1C15.3148 22.3 13.3148 26 8.81482 30.5C5.71482 33.7 4.81482 37.7 6.31482 41.3C7.81482 44.8 11.3148 47.2 15.3148 47.5C15.6148 47.5 15.8148 47.5 16.1148 47.5C16.4148 47.5 16.6148 47.5 16.9148 47.5C21.1148 47.2 24.6148 44.8 26.1148 41.3Z" fill="url(#paint0_linear)"/>
<path d="M30.9149 26.7C30.8149 24.4 31.7149 21.5 28.8149 18C28.8149 18 28.9149 20.3 26.9149 22.2C26.9149 22.2 27.6149 18.4 24.5149 13.9C21.3149 9.3 18.5149 7.3 21.3149 0C21.3149 0 7.8149 6.9 6.8149 18.8C6.8149 18.8 5.7149 17.1 3.5149 16.6C3.5149 16.6 6.1149 22.3 1.5149 28.8C-2.0851 33.9 1.0149 41.6 7.8149 45C3.4149 41.1 2.3149 34.1 7.8149 28.5C15.9149 20.2 16.2149 14.9 16.2149 14.9C16.2149 14.9 16.6149 20.2 24.6149 28.5C29.8149 33.9 29.1149 40.5 25.0149 44.5C29.7149 42.2 32.1149 38.3 32.3149 35C32.6149 31.7 31.0149 29 30.9149 26.7Z" fill="url(#paint1_linear)"/>
<defs>
<linearGradient id="paint0_linear" x1="9.36462" y1="22.8102" x2="22.9959" y2="52.5971" gradientUnits="userSpaceOnUse">
<stop stop-color="#B2D9F4"/>
<stop offset="0.8714" stop-color="#00ABE7"/>
</linearGradient>
<linearGradient id="paint1_linear" x1="1.1857" y1="4.2911" x2="31.0384" y2="48.9368" gradientUnits="userSpaceOnUse">
<stop offset="0.1518" stop-color="#FDC500"/>
<stop offset="0.5277" stop-color="#E30613"/>
<stop offset="1" stop-color="#312A71"/>
</linearGradient>
</defs>
</svg>
