<svg width="64" height="31" viewBox="0 0 64 31" fill="none" xmlns="http://www.w3.org/2000/svg">
<path d="M0 25.6L4.6 20.1C7.6 22.5 10.9 23.7 14.3 23.7C16.6 23.7 17.8 22.9 17.8 21.6C17.8 20.2 16.8 20 12.7 19C6.3 17.5 1.4 15.9 1.4 9.7C1.4 3.8 6 0 13 0C18.1 0 22.1 1.4 25.3 4L21.1 9.89999C18.4 7.89999 15.4 6.89999 12.7 6.89999C10.7 6.89999 9.7 7.7 9.7 8.8C9.7 10.3 10.7 10.8 14.9 11.7C21.8 13.2 26 15 26 20.6C26 26.8 21.2 30.5 13.9 30.5C8.7 30.5 3.7 28.9 0 25.6Z" fill="url(#paint0_radial)"/>
<path d="M17.7998 0.600006H26.7998L30.3998 17.6L36.0998 0.600006H45.0998L50.7998 17.6L54.3998 0.600006H63.3998L55.2998 30H46.8998L40.7998 13L34.5998 30H26.1998L17.7998 0.600006Z" fill="url(#paint1_radial)"/>
<defs>
<radialGradient id="paint0_radial" cx="0" cy="0" r="1" gradientUnits="userSpaceOnUse" gradientTransform="translate(10.0323 7.6396) scale(47.2208)">
<stop offset="0.1224" stop-color="#FDC500"/>
<stop offset="0.1472" stop-color="#FAB500"/>
<stop offset="0.2125" stop-color="#F28C00"/>
<stop offset="0.2768" stop-color="#EC6707"/>
<stop offset="0.3385" stop-color="#E84610"/>
<stop offset="0.3972" stop-color="#E52C12"/>
<stop offset="0.4514" stop-color="#E41513"/>
<stop offset="0.497" stop-color="#E30613"/>
<stop offset="0.5574" stop-color="#C3191E"/>
<stop offset="0.6486" stop-color="#952228"/>
<stop offset="0.7361" stop-color="#6F272E"/>
<stop offset="0.8173" stop-color="#522832"/>
<stop offset="0.8907" stop-color="#3D2934"/>
<stop offset="0.9541" stop-color="#302934"/>
<stop offset="1" stop-color="#2A2935"/>
</radialGradient>
<radialGradient id="paint1_radial" cx="0" cy="0" r="1" gradientUnits="userSpaceOnUse" gradientTransform="translate(17.2049 7.8985) scale(52.415)">
<stop offset="0.1224" stop-color="#FDC500"/>
<stop offset="0.1472" stop-color="#FAB500"/>
<stop offset="0.2125" stop-color="#F28C00"/>
<stop offset="0.2768" stop-color="#EC6707"/>
<stop offset="0.3385" stop-color="#E84610"/>
<stop offset="0.3972" stop-color="#E52C12"/>
<stop offset="0.4514" stop-color="#E41513"/>
<stop offset="0.497" stop-color="#E30613"/>
<stop offset="0.5501" stop-color="#C9182B"/>
<stop offset="0.6303" stop-color="#A22344"/>
<stop offset="0.7072" stop-color="#7D2956"/>
<stop offset="0.7785" stop-color="#5D2B63"/>
<stop offset="0.8431" stop-color="#462B6B"/>
<stop offset="0.8988" stop-color="#372A70"/>
<stop offset="0.9391" stop-color="#312A71"/>
</radialGradient>
</defs>
</svg>
